#Comment line ignore any data following # character 
#Hierarchical Translation and Rotation (.htr) file 
[Header]	
#Header keywords are followed by a single value 
FileType HTR		#Single word string
DataType HTRS		#Translation followed by rotation and scale data
FileVersion 1		#integer
NumSegments 64		#integer
NumFrames 3		#integer
DataFrameRate 30		#integer, data frame rate in this file
EulerRotationOrder ZYX
CalibrationUnits mm
RotationUnits Degrees
GlobalAxisofGravity Y
BoneLengthAxis Y
ScaleFactor 1.00
[SegmentNames&Hierarchy]
#CHILD	PARENT
Pinger_Root GLOBAL
Pelvis Pinger_Root
L_Hip Pelvis
R_Hip Pelvis
Rear_Leg01 Pelvis
Spine1 Pelvis
L_Leg01 L_Hip
L_Leg02 L_Leg01
L_Leg03 L_Leg02
L_Foot L_Leg03
L_Toe1_01 L_Foot
L_Toe2_01 L_Foot
L_Toe3_01 L_Foot
planeAlignerLeft L_Foot
L_Toe1_02 L_Toe1_01
L_Toe1_03 L_Toe1_02
L_Toe2_02 L_Toe2_01
L_Toe2_03 L_Toe2_02
L_Toe3_02 L_Toe3_01
L_Toe3_03 L_Toe3_02
planeLockWeightLeft planeAlignerLeft
R_Leg01 R_Hip
R_Leg02 R_Leg01
R_Leg03 R_Leg02
R_Foot R_Leg03
planeAlignerRight R_Foot
R_Toe1_01 R_Foot
R_Toe2_01 R_Foot
R_Toe3_01 R_Foot
planeLockWeightRight planeAlignerRight
R_Toe1_02 R_Toe1_01
R_Toe1_03 R_Toe1_02
R_Toe2_02 R_Toe2_01
R_Toe2_03 R_Toe2_02
R_Toe3_02 R_Toe3_01
R_Toe3_03 R_Toe3_02
Rear_Leg02 Rear_Leg01
Rear_Leg03 Rear_Leg02
Rear_Leg04 Rear_Leg03
Rear_Foot Rear_Leg04
planeAlignerCenter Rear_Foot
Rear_Toe1_01 Rear_Foot
Rear_Toe2_01 Rear_Foot
Rear_Toe3_01 Rear_Foot
planeLockWeightCenter planeAlignerCenter
Rear_Toe1_02 Rear_Toe1_01
Rear_Toe1_03 Rear_Toe1_02
Rear_Toe2_02 Rear_Toe2_01
Rear_Toe2_03 Rear_Toe2_02
Rear_Toe3_02 Rear_Toe3_01
Rear_Toe3_03 Rear_Toe3_02
Back_Bone Spine1
Head Spine1
Motor_Bone Back_Bone
Ping_Mechanism Back_Bone
BN_LookIK Head
bottomMouth Head
L_Mouth01 Head
L_mouthFront Head
mouthGun Head
R_Mouth01 Head
R_mouthFront Head
TopMouth Head
weapon_bone Head
[BasePosition]
#SegmentName Tx, Ty, Tz, Rx, Ry, Rz, BoneLength
Pinger_Root 0.000000 0.000000 0.000000 -90.000000 0.000000 0.000000 10.000000 
Pelvis 0.000000 0.000000 0.000000 0.000000 0.000000 0.000000 10.000000 
L_Hip 0.000000 0.000000 0.000000 0.000000 0.000000 0.000000 10.000000 
R_Hip 0.000000 0.000000 0.000000 0.000000 0.000000 0.000000 10.000000 
Rear_Leg01 0.000000 0.000000 0.000000 0.000000 0.000000 0.000000 10.000000 
Spine1 0.000000 0.000000 0.000000 0.000000 0.000000 0.000000 10.000000 
L_Leg01 0.000000 0.000000 0.000000 0.000000 0.000000 0.000000 10.000000 
L_Leg02 0.000000 0.000000 0.000000 0.000000 0.000000 0.000000 10.000000 
L_Leg03 0.000000 0.000000 0.000000 0.000000 0.000000 0.000000 10.000000 
L_Foot 0.000000 0.000000 0.000000 0.000000 0.000000 0.000000 10.000000 
L_Toe1_01 0.000000 0.000000 0.000000 0.000000 0.000000 0.000000 10.000000 
L_Toe2_01 0.000000 0.000000 0.000000 0.000000 0.000000 0.000000 10.000000 
L_Toe3_01 0.000000 0.000000 0.000000 0.000000 0.000000 0.000000 10.000000 
planeAlignerLeft 0.000000 0.000000 0.000000 0.000000 0.000000 0.000000 10.000000 
L_Toe1_02 0.000000 0.000000 0.000000 0.000000 0.000000 0.000000 10.000000 
L_Toe1_03 0.000000 0.000000 0.000000 0.000000 0.000000 0.000000 10.000000 
L_Toe2_02 0.000000 0.000000 0.000000 0.000000 0.000000 0.000000 10.000000 
L_Toe2_03 0.000000 0.000000 0.000000 0.000000 0.000000 0.000000 10.000000 
L_Toe3_02 0.000000 0.000000 0.000000 0.000000 0.000000 0.000000 10.000000 
L_Toe3_03 0.000000 0.000000 0.000000 0.000000 0.000000 0.000000 10.000000 
planeLockWeightLeft 0.000000 0.000000 0.000000 0.000000 0.000000 0.000000 10.000000 
R_Leg01 0.000000 0.000000 0.000000 0.000000 0.000000 0.000000 10.000000 
R_Leg02 0.000000 0.000000 0.000000 0.000000 0.000000 0.000000 10.000000 
R_Leg03 0.000000 0.000000 0.000000 0.000000 0.000000 0.000000 10.000000 
R_Foot 0.000000 0.000000 0.000000 0.000000 0.000000 0.000000 10.000000 
planeAlignerRight 0.000000 0.000000 0.000000 0.000000 0.000000 0.000000 10.000000 
R_Toe1_01 0.000000 0.000000 0.000000 0.000000 0.000000 0.000000 10.000000 
R_Toe2_01 0.000000 0.000000 0.000000 0.000000 0.000000 0.000000 10.000000 
R_Toe3_01 0.000000 0.000000 0.000000 0.000000 0.000000 0.000000 10.000000 
planeLockWeightRight 0.000000 0.000000 0.000000 0.000000 0.000000 0.000000 10.000000 
R_Toe1_02 0.000000 0.000000 0.000000 0.000000 0.000000 0.000000 10.000000 
R_Toe1_03 0.000000 0.000000 0.000000 0.000000 0.000000 0.000000 10.000000 
R_Toe2_02 0.000000 0.000000 0.000000 0.000000 0.000000 0.000000 10.000000 
R_Toe2_03 0.000000 0.000000 0.000000 0.000000 0.000000 0.000000 10.000000 
R_Toe3_02 0.000000 0.000000 0.000000 0.000000 0.000000 0.000000 10.000000 
R_Toe3_03 0.000000 0.000000 0.000000 0.000000 0.000000 0.000000 10.000000 
Rear_Leg02 0.000000 0.000000 0.000000 0.000000 0.000000 0.000000 10.000000 
Rear_Leg03 0.000000 0.000000 0.000000 0.000000 0.000000 0.000000 10.000000 
Rear_Leg04 0.000000 0.000000 0.000000 0.000000 0.000000 0.000000 10.000000 
Rear_Foot 0.000000 0.000000 0.000000 0.000000 0.000000 0.000000 10.000000 
planeAlignerCenter 0.000000 0.000000 0.000000 0.000000 0.000000 0.000000 10.000000 
Rear_Toe1_01 0.000000 0.000000 0.000000 0.000000 0.000000 0.000000 10.000000 
Rear_Toe2_01 0.000000 0.000000 0.000000 0.000000 0.000000 0.000000 10.000000 
Rear_Toe3_01 0.000000 0.000000 0.000000 0.000000 0.000000 0.000000 10.000000 
planeLockWeightCenter 0.000000 0.000000 0.000000 0.000000 0.000000 0.000000 10.000000 
Rear_Toe1_02 0.000000 0.000000 0.000000 0.000000 0.000000 0.000000 10.000000 
Rear_Toe1_03 0.000000 0.000000 0.000000 0.000000 0.000000 0.000000 10.000000 
Rear_Toe2_02 0.000000 0.000000 0.000000 0.000000 0.000000 0.000000 10.000000 
Rear_Toe2_03 0.000000 0.000000 0.000000 0.000000 0.000000 0.000000 10.000000 
Rear_Toe3_02 0.000000 0.000000 0.000000 0.000000 0.000000 0.000000 10.000000 
Rear_Toe3_03 0.000000 0.000000 0.000000 0.000000 0.000000 0.000000 10.000000 
Back_Bone 0.000000 0.000000 0.000000 0.000000 0.000000 0.000000 10.000000 
Head 0.000000 0.000000 0.000000 0.000000 0.000000 0.000000 10.000000 
Motor_Bone 0.000000 0.000000 0.000000 0.000000 0.000000 0.000000 10.000000 
Ping_Mechanism 0.000000 0.000000 0.000000 0.000000 0.000000 0.000000 10.000000 
BN_LookIK 0.000000 0.000000 0.000000 0.000000 0.000000 0.000000 10.000000 
bottomMouth 0.000000 0.000000 0.000000 0.000000 0.000000 0.000000 10.000000 
L_Mouth01 0.000000 0.000000 0.000000 0.000000 0.000000 0.000000 10.000000 
L_mouthFront 0.000000 0.000000 0.000000 0.000000 0.000000 0.000000 10.000000 
mouthGun 0.000000 0.000000 0.000000 0.000000 0.000000 0.000000 10.000000 
R_Mouth01 0.000000 0.000000 0.000000 0.000000 0.000000 0.000000 10.000000 
R_mouthFront 0.000000 0.000000 0.000000 0.000000 0.000000 0.000000 10.000000 
TopMouth 0.000000 0.000000 0.000000 0.000000 0.000000 0.000000 10.000000 
weapon_bone 0.000000 0.000000 0.000000 0.000000 0.000000 0.000000 10.000000 
#Beginning of Data. Separated by tabs
#Fr	Tx	Ty	Tz	Rx	Ry	Rz	SF
[Pinger_Root]
9 0.000000 0.000000 0.000000 -0.000075 -0.000000 -0.000020 0.000000
10 0.000000 0.000000 0.000000 -0.000075 -0.000000 -0.000020 0.000000
11 0.000000 0.000000 0.000000 -0.000075 -0.000000 -0.000020 0.000000
[Pelvis]
9 1067.594604 -243.219879 5554.691895 61.965019 -70.413551 -70.053619 5661.582520
10 1238.133789 -239.513962 5525.600098 58.710102 -69.755272 -67.412407 5667.680176
11 1400.928345 -231.829086 5448.460938 55.160328 -69.289589 -64.535904 5630.459473
[L_Hip]
9 5.766392 125.831482 872.656799 160.158691 -45.484905 122.312202 881.701050
10 5.766392 125.831482 872.656799 160.158691 -45.484905 122.312202 881.701050
11 5.766392 125.831482 872.656799 160.158691 -45.484905 122.312202 881.701050
[R_Hip]
9 5.765438 125.836372 -872.654907 38.087841 49.812687 125.703735 881.699829
10 5.765438 125.836372 -872.654907 38.087841 49.812687 125.703735 881.699829
11 5.765438 125.836372 -872.654907 38.087830 49.812672 125.703735 881.699829
[Rear_Leg01]
9 -192.298416 -925.602966 -0.001907 172.709732 -2.144368 -153.334045 945.367432
10 -192.298416 -925.602966 -0.001907 172.629059 -2.701678 -152.934998 945.367432
11 -192.298416 -925.602966 -0.001907 172.544464 -3.258432 -152.534927 945.367432
[Spine1]
9 290.604584 5.007505 0.000477 -31.480724 11.494208 -48.131588 290.647736
10 290.604584 5.007505 0.000477 -31.118773 11.236329 -48.683643 290.647736
11 290.604584 5.007505 0.000477 -30.443806 11.174473 -48.935863 290.647736
[L_Leg01]
9 761.932007 -0.002384 -0.069261 32.152203 2.336088 -55.276398 761.932068
10 761.932007 -0.002384 -0.069261 31.486025 2.111622 -55.793156 761.932068
11 761.932007 -0.002384 -0.069261 30.560743 1.389243 -56.174393 761.932068
[L_Leg02]
9 1441.140503 -0.000954 -0.000715 -0.883803 1.132276 -24.229898 1441.140503
10 1441.140503 -0.000954 -0.000715 -0.949849 1.097964 -27.549454 1441.140503
11 1441.140503 -0.000954 -0.000715 -1.056684 1.029758 -33.022766 1441.140503
[L_Leg03]
9 1686.963989 -0.000715 -0.000954 0.253513 0.064619 41.386097 1686.963989
10 1686.963989 -0.000715 -0.000954 0.238565 0.050225 46.398609 1686.963989
11 1686.963989 -0.000715 -0.000954 0.206094 0.029101 54.580261 1686.963989
[L_Foot]
9 3041.570068 -30.715107 11.297464 -0.887225 12.920993 52.843292 3041.746094
10 3041.570068 -30.715107 11.297464 -1.376452 12.869036 50.756180 3041.746094
11 3041.570068 -30.715107 11.297464 -1.523481 12.807720 47.564442 3041.746094
[L_Toe1_01]
9 -188.216690 -224.732346 -21.137953 93.453667 -3.642405 -168.523361 293.899567
10 -188.216690 -224.732346 -21.137953 93.307137 -4.123924 -166.685944 293.899567
11 -188.216690 -224.732346 -21.137953 93.162613 -4.830862 -165.243759 293.899567
[L_Toe2_01]
9 200.746536 -219.926590 148.838394 -90.289337 -21.999872 -55.063309 332.896027
10 200.746536 -219.926590 148.838394 -89.519165 -22.155993 -56.831741 332.896027
11 200.746536 -219.926590 148.838394 -88.791420 -22.638548 -58.257893 332.896027
[L_Toe3_01]
9 188.832520 -219.859131 -191.078659 -101.970314 16.148605 -73.185486 347.140900
10 188.832520 -219.859131 -191.078659 -101.902664 15.248869 -74.611374 347.140900
11 188.832520 -219.859131 -191.078659 -101.640411 14.244261 -75.488571 347.140900
[planeAlignerLeft]
9 0.812531 -811.448792 -0.314951 0.000000 -90.000000 -90.001900 811.449280
10 0.812531 -811.448792 -0.314951 0.000000 -90.000000 -90.001900 811.449280
11 0.812531 -811.448792 -0.314951 0.000000 -90.000000 -90.001900 811.449280
[L_Toe1_02]
9 413.761139 0.000477 0.000000 0.001384 -25.952026 0.001384 413.761139
10 413.761139 0.000477 0.000000 0.001386 -25.750450 0.001386 413.761139
11 413.761139 0.000477 0.000000 0.001387 -25.548866 0.001387 413.761139
[L_Toe1_03]
9 464.317322 0.000358 -0.000089 0.003469 50.454811 0.003469 464.317322
10 464.317322 0.000358 -0.000089 0.003240 47.525360 0.003240 464.317322
11 464.317322 0.000358 -0.000089 0.003055 44.821041 0.003055 464.317322
[L_Toe2_02]
9 342.235809 -0.000477 0.000238 0.001187 -72.543007 0.001187 342.235809
10 342.235809 -0.000477 0.000238 0.001189 -71.518372 0.001189 342.235809
11 342.235809 -0.000477 0.000238 0.001191 -70.493576 0.001191 342.235809
[L_Toe2_03]
9 420.210846 -0.000715 0.000000 0.031774 85.766357 0.031774 420.210846
10 420.210846 -0.000715 0.000000 0.019710 83.170906 0.019710 420.210846
11 420.210846 -0.000715 0.000000 0.014286 80.575394 0.014286 420.210846
[L_Toe3_02]
9 329.270111 0.000954 0.000000 0.001181 -77.360634 0.001181 329.270111
10 329.270111 0.000954 0.000000 0.001182 -76.614983 0.001182 329.270111
11 329.270111 0.000954 0.000000 0.001182 -76.155609 0.001182 329.270111
[L_Toe3_03]
9 439.137451 -0.001907 0.000954 -179.929214 89.091515 -179.925720 439.137451
10 439.137451 -0.001907 0.000954 -0.052842 88.710472 -0.049345 439.137451
11 439.137451 -0.001907 0.000954 -0.028165 87.506447 -0.024668 439.137451
[planeLockWeightLeft]
9 -0.000954 0.000238 -0.000305 -0.011826 -0.004376 0.005620 0.001029
10 -0.000954 0.000238 -0.000305 -0.011826 -0.004376 0.005620 0.001029
11 -0.000954 0.000238 -0.000305 -0.011826 -0.004376 0.005620 0.001029
[R_Leg01]
9 761.455627 -0.001907 -0.000358 121.830963 33.589588 69.664581 761.455688
10 761.455627 -0.001907 -0.000358 121.144058 33.387394 69.994995 761.455688
11 761.455627 -0.001907 -0.000358 120.206070 32.805191 69.889526 761.455688
[R_Leg02]
9 1441.140625 0.000000 -0.000238 1.234076 -0.379137 -22.901138 1441.140625
10 1441.140625 0.000000 -0.000238 1.257615 -0.343871 -24.877550 1441.140625
11 1441.140625 0.000000 -0.000238 1.279950 -0.279713 -28.088255 1441.140625
[R_Leg03]
9 1686.963989 0.000954 0.001431 -0.081733 0.013078 88.724838 1686.963989
10 1686.963989 0.000954 0.001431 -0.067392 0.014937 91.613632 1686.963989
11 1686.963989 0.000954 0.001431 -0.049486 0.013131 96.075958 1686.963989
[R_Foot]
9 3041.560059 -30.531288 -11.204481 -17.256948 -24.307943 40.925537 3041.734131
10 3041.560059 -30.531288 -11.204481 -19.175611 -24.350655 40.771530 3041.734131
11 3041.560059 -30.531288 -11.204481 -20.982857 -24.373444 39.993080 3041.734131
[planeAlignerRight]
9 -0.635147 -812.270569 -0.364304 0.000000 -89.960434 -90.005180 812.270874
10 -0.635147 -812.270569 -0.364304 0.000000 -89.960434 -90.005180 812.270874
11 -0.635147 -812.270569 -0.364304 0.000000 -89.960434 -90.005180 812.270874
[R_Toe1_01]
9 -188.383347 -224.864899 21.052242 76.448730 7.692398 -168.014587 294.101532
10 -188.383347 -224.864899 21.052242 76.480881 8.786063 -167.416107 294.101532
11 -188.383347 -224.864899 21.052242 76.502380 9.174129 -167.080124 294.101532
[R_Toe2_01]
9 200.637817 -220.002121 -148.787384 -96.703018 39.191078 -64.088478 332.857574
10 200.637817 -220.002121 -148.787384 -97.187454 40.004391 -64.439438 332.857574
11 200.637817 -220.002121 -148.787384 -97.367599 40.249439 -64.612869 332.857574
[R_Toe3_01]
9 188.606735 -220.092957 191.126343 -76.295792 -1.546336 -74.330276 347.192566
10 188.606735 -220.092957 191.126343 -76.684334 -0.477839 -74.374786 347.192566
11 188.606735 -220.092957 191.126343 -76.820129 -0.074232 -74.513794 347.192566
[planeLockWeightRight]
9 -0.000477 0.000000 0.000000 -0.011823 -0.004379 -0.000027 0.000477
10 -0.000477 0.000000 0.000000 -0.011823 -0.004379 -0.000027 0.000477
11 -0.000477 0.000000 0.000000 -0.011823 -0.004379 -0.000027 0.000477
[R_Toe1_02]
9 413.762085 0.000477 -0.000119 0.001385 -25.886059 0.001385 413.762085
10 413.762085 0.000477 -0.000119 0.001385 -25.911432 0.001385 413.762085
11 413.762085 0.000477 -0.000119 0.001384 -25.936808 0.001384 413.762085
[R_Toe1_03]
9 464.317810 0.000000 0.001088 0.003988 55.768654 0.003988 464.317810
10 464.317810 0.000000 0.001088 0.003783 53.857811 0.003783 464.317810
11 464.317810 0.000000 0.001088 0.003695 52.960934 0.003695 464.317810
[R_Toe2_02]
9 342.234741 -0.000954 0.000238 0.001215 -59.843918 0.001215 342.234741
10 342.234741 -0.000954 0.000238 0.001221 -58.105335 0.001221 342.234741
11 342.234741 -0.000954 0.000238 0.001223 -57.342964 0.001223 342.234741
[R_Toe2_03]
9 420.210846 0.000715 -0.000268 -0.004071 60.573792 -0.000455 420.210846
10 420.210846 0.000715 -0.000268 -0.003901 57.950783 -0.000263 420.210846
11 420.210846 0.000715 -0.000268 -0.003837 56.817543 -0.000188 420.210846
[R_Toe3_02]
9 329.270355 -0.000477 -0.000954 0.001181 -77.598671 0.001181 329.270355
10 329.270355 -0.000477 -0.000954 0.001180 -77.874702 0.001180 329.270355
11 329.270355 -0.000477 -0.000954 0.001180 -77.874702 0.001180 329.270355
[R_Toe3_03]
9 439.137939 0.000238 0.001431 -179.964584 88.227455 -179.961090 439.137939
10 439.137939 0.000238 0.001431 -179.974884 87.547607 -179.971390 439.137939
11 439.137939 0.000238 0.001431 -179.974884 87.547607 -179.971390 439.137939
[Rear_Leg02]
9 1162.777710 -0.029802 0.005960 0.194041 -2.989673 -114.883675 1162.777710
10 1162.777710 -0.029802 0.005960 0.166844 -2.993471 -114.365616 1162.777710
11 1162.777710 -0.029802 0.005960 0.232221 -2.987811 -115.663666 1162.777710
[Rear_Leg03]
9 607.192505 -0.013351 -0.073195 0.006532 -0.001927 61.078484 607.192505
10 607.192505 -0.013351 -0.073195 0.006535 -0.001915 60.871868 607.192505
11 607.192505 -0.013351 -0.073195 0.006527 -0.001944 61.388805 607.192505
[Rear_Leg04]
9 995.874512 -0.020504 -0.011921 -0.039647 -0.017310 52.100590 995.874573
10 995.874512 -0.020504 -0.011921 -0.039589 -0.017441 51.721058 995.874573
11 995.874512 -0.020504 -0.011921 -0.039733 -0.017111 52.673813 995.874573
[Rear_Foot]
9 3096.176270 -0.067472 -0.041425 -167.589020 76.311897 9.049121 3096.176270
10 3096.176270 -0.067472 -0.041425 -169.099213 74.412903 7.582509 3096.176270
11 3096.176270 -0.067472 -0.041425 -170.287369 72.505623 6.438106 3096.176270
[planeAlignerCenter]
9 0.350077 0.966311 -838.790894 0.000009 0.000003 -179.999985 838.791565
10 0.350077 0.966311 -838.790894 0.000009 0.000003 -179.999985 838.791565
11 0.350077 0.966311 -838.790894 0.000009 0.000003 -179.999985 838.791565
[Rear_Toe1_01]
9 0.653352 83.966492 -371.173737 0.293591 41.913651 90.407974 380.553192
10 0.653352 83.966492 -371.173737 0.293598 41.913597 90.408005 380.553192
11 0.653352 83.966492 -371.173737 0.293607 41.913540 90.408028 380.553192
[Rear_Toe2_01]
9 178.200760 -294.826019 -362.060547 -7.196548 34.406078 -66.271332 499.765686
10 178.200760 -294.826019 -362.060547 -7.196587 34.406059 -66.271355 499.765686
11 178.200760 -294.826019 -362.060547 -7.196623 34.406040 -66.271362 499.765686
[Rear_Toe3_01]
9 -153.359680 -308.780914 -362.060852 3.289480 33.517563 -112.541046 499.952881
10 -153.359680 -308.780914 -362.060852 3.289486 33.517509 -112.541061 499.952881
11 -153.359680 -308.780914 -362.060852 3.289492 33.517448 -112.541077 499.952881
[planeLockWeightCenter]
9 -0.000062 0.000238 0.000000 -0.011814 -0.004373 -0.000015 0.000246
10 -0.000062 0.000238 0.000000 -0.011814 -0.004373 -0.000015 0.000246
11 -0.000062 0.000238 0.000000 -0.011814 -0.004373 -0.000015 0.000246
[Rear_Toe1_02]
9 379.707825 0.194073 0.000477 -0.000242 -31.677069 0.006934 379.707855
10 379.707825 0.194073 0.000477 -0.000242 -31.677111 0.006934 379.707855
11 379.707825 0.194073 0.000477 -0.000242 -31.677147 0.006934 379.707855
[Rear_Toe1_03]
9 500.129700 0.165701 0.000119 -0.000103 51.903511 0.007295 500.129761
10 500.129700 0.165701 0.000119 -0.000103 51.903625 0.007295 500.129761
11 500.129700 0.165701 0.000119 -0.000103 51.903782 0.007295 500.129761
[Rear_Toe2_02]
9 340.494507 0.000238 -0.000954 0.001192 -69.854912 0.001192 340.494507
10 340.494507 0.000238 -0.000954 0.001192 -69.854958 0.001192 340.494507
11 340.494507 0.000238 -0.000954 0.001192 -69.854996 0.001192 340.494507
[Rear_Toe2_03]
9 433.103577 0.000000 0.000238 0.006696 69.810677 0.006696 433.103546
10 433.103577 0.000000 0.000238 0.006696 69.810745 0.006696 433.103546
11 433.103577 0.000000 0.000238 0.006696 69.810791 0.006696 433.103546
[Rear_Toe3_02]
9 340.494141 -0.000358 -0.000477 0.008288 -67.275078 -0.009460 340.494171
10 340.494141 -0.000358 -0.000477 0.008288 -67.275108 -0.009460 340.494171
11 340.494141 -0.000358 -0.000477 0.008288 -67.275177 -0.009460 340.494171
[Rear_Toe3_03]
9 433.103577 0.001431 -0.000238 -0.000972 65.958984 -0.004547 433.103546
10 433.103577 0.001431 -0.000238 -0.000972 65.958984 -0.004547 433.103546
11 433.103577 0.001431 -0.000238 -0.000972 65.958984 -0.004547 433.103546
[Back_Bone]
9 1312.175781 -701.934692 0.000954 0.000023 -0.000007 -85.606667 1488.125488
10 1312.175781 -701.934692 0.000954 0.000023 -0.000007 -85.606667 1488.125488
11 1312.175781 -701.934692 0.000954 0.000023 -0.000007 -85.606667 1488.125488
[Head]
9 1406.159424 809.709290 0.001431 0.001716 11.243470 -6.262960 1622.625488
10 1406.159424 809.709290 0.001431 0.002321 11.722823 -7.311418 1622.625488
11 1406.159424 809.709290 0.001431 0.001653 11.923721 -8.244840 1622.625488
[Motor_Bone]
9 1158.364380 -417.834747 0.000477 -1.493037 14.007198 -71.038330 1231.419434
10 1158.364380 -417.834747 0.000477 -2.441351 10.707504 -69.731293 1231.419434
11 1158.364380 -417.834747 0.000477 -3.543325 7.238117 -68.680237 1231.419434
[Ping_Mechanism]
9 1228.333496 -419.577026 -7.407095 0.000103 -0.000053 82.120995 1298.038086
10 1228.390625 -419.571533 -7.290082 0.000103 -0.000053 82.120995 1298.089722
11 1228.447632 -419.566040 -7.173069 0.000103 -0.000053 82.120995 1298.141357
[BN_LookIK]
9 193.241119 1380.371704 -0.002861 0.000000 89.965736 -31.038179 1393.832153
10 193.241119 1380.371704 -0.002861 0.000000 89.965736 -31.038179 1393.832153
11 193.241119 1380.371704 -0.002861 0.000000 89.965736 -31.038179 1393.832153
[bottomMouth]
9 -435.092926 615.759399 -0.000954 -0.000022 0.000016 73.527184 753.966492
10 -435.092926 615.759399 -0.000954 -0.000022 0.000016 73.527184 753.966492
11 -435.092926 615.759399 -0.000954 -0.000022 0.000016 73.527184 753.966492
[L_Mouth01]
9 554.440979 7.658243 838.222046 150.204178 23.759130 109.605339 1005.027161
10 554.440979 7.658243 838.222046 150.204178 23.759130 109.605339 1005.027161
11 554.440979 7.658243 838.222046 150.204178 23.759130 109.605339 1005.027161
[L_mouthFront]
9 551.629089 934.514771 339.150421 0.000081 2.804060 79.119301 1136.941284
10 551.629089 934.514771 339.150421 0.000081 2.804060 79.119301 1136.941284
11 551.629089 934.514771 339.150421 0.000081 2.804060 79.119301 1136.941284
[mouthGun]
9 55.332661 1627.420898 0.000000 0.000023 0.000009 -11.038128 1628.361328
10 55.332661 1627.420898 0.000000 0.000023 0.000009 -11.038128 1628.361328
11 55.332661 1627.420898 0.000000 0.000023 0.000009 -11.038128 1628.361328
[R_Mouth01]
9 554.442383 7.659197 -838.223938 29.795891 -23.759109 109.605331 1005.029541
10 554.442383 7.659197 -838.223938 29.795891 -23.759109 109.605331 1005.029541
11 554.442383 7.659197 -838.223938 29.795891 -23.759109 109.605331 1005.029541
[R_mouthFront]
9 551.629089 934.514282 -339.151367 0.000029 -2.803930 79.119133 1136.941162
10 551.629089 934.514282 -339.151367 0.000029 -2.803930 79.119133 1136.941162
11 551.629089 934.514282 -339.151367 0.000029 -2.803930 79.119133 1136.941162
[TopMouth]
9 461.269867 -56.106091 -0.008583 -0.000059 -0.000268 92.025169 464.669525
10 461.269867 -56.106091 -0.008583 -0.000059 -0.000268 92.025169 464.669525
11 461.269867 -56.106091 -0.008583 -0.000059 -0.000268 92.025169 464.669525
[weapon_bone]
9 -987.239868 1448.372803 0.001431 0.000000 89.965736 -31.038221 1752.833740
10 -987.239868 1448.372803 0.001431 0.000000 89.965736 -31.038221 1752.833740
11 -987.239868 1448.372803 0.001431 0.000000 89.965736 -31.038221 1752.833740
